
<svg width="10px" height="10px" viewBox="0 0 10 10" version="1.1" xmlns="http://www.w3.org/2000/svg" xmlns:xlink="http://www.w3.org/1999/xlink">
    <!-- Generator: Sketch 49 (51002) - http://www.bohemiancoding.com/sketch -->
    <desc>Created with Sketch.</desc>
    <defs></defs>
    <g id="Page-1" stroke="none" stroke-width="1" fill="none" fill-rule="evenodd">
        <g id="Candadates" transform="translate(-932.000000, -360.000000)" fill="#C1C1C1">
            <g id="Table" transform="translate(34.000000, 289.000000)">
                <g id="Job-List-Items" transform="translate(2.000000, 34.000000)">
                    <g id="List-Item">
                        <path d="M900,41 L900,38 C900,37.4477153 900.447715,37 901,37 C901.552285,37 902,37.4477153 902,38 L902,41 L905,41 C905.552285,41 906,41.4477153 906,42 C906,42.5522847 905.552285,43 905,43 L902,43 L902,46 C902,46.5522847 901.552285,47 901,47 C900.447715,47 900,46.5522847 900,46 L900,43 L897,43 C896.447715,43 896,42.5522847 896,42 C896,41.4477153 896.447715,41 897,41 L900,41 Z" id="Combined-Shape" transform="translate(901.000000, 42.000000) rotate(-180.000000) translate(-901.000000, -42.000000) "></path>
                    </g>
                </g>
            </g>
        </g>
    </g>
</svg>