<svg width="19px" height="19px" viewBox="0 0 19 19" version="1.1" xmlns="http://www.w3.org/2000/svg" xmlns:xlink="http://www.w3.org/1999/xlink">
    <!-- Generator: Sketch 49 (51002) - http://www.bohemiancoding.com/sketch -->
    <desc>Created with Sketch.</desc>
    <defs></defs>
    <g id="Page-1" stroke="none" stroke-width="1" fill="none" fill-rule="evenodd">
        <g id="Jobs-View-V1" transform="translate(-51.000000, -276.000000)" fill="#ffffff" fill-rule="nonzero">
            <g id="Search-Copy" transform="translate(36.000000, 260.000000)">
                <g id="Search-Box">
                    <path d="M25.3085461,14.7936603 C21.285563,14.7936603 18.0093612,18.0698622 18.0093612,22.0928453 C18.0093612,25.7063032 20.6110509,28.6934284 24.0558807,29.2956713 L23.6704452,36.185331 C23.6222658,37.1007404 24.3449574,37.8475217 25.2603667,37.8475217 L25.3808153,37.8475217 C26.2962246,37.8475217 27.0189162,37.0766507 26.9707368,36.185331 L26.5853013,29.2956713 C30.0301311,28.6934284 32.6318208,25.7063032 32.6318208,22.0928453 C32.6077311,18.0457724 29.3315293,14.7936603 25.3085461,14.7936603 Z M25.3085461,26.8866994 C22.658677,26.8866994 20.514692,24.7427144 20.514692,22.0928453 C20.514692,19.4429762 22.658677,17.2989911 25.3085461,17.2989911 C27.9584153,17.2989911 30.1024003,19.4429762 30.1024003,22.0928453 C30.1024003,24.7427144 27.9584153,26.8866994 25.3085461,26.8866994 Z" id="Shape" transform="translate(25.320591, 26.320591) rotate(-45.000000) translate(-25.320591, -26.320591) "></path>
                </g>
            </g>
        </g>
    </g>
</svg>